<?xml version="1.0" encoding="utf-8"?>
<!-- Generator: Adobe Illustrator 27.8.0, SVG Export Plug-In . SVG Version: 6.00 Build 0)  -->
<svg version="1.1" id="Layer_1" xmlns="http://www.w3.org/2000/svg" xmlns:xlink="http://www.w3.org/1999/xlink" x="0px" y="0px"
	 width="300px" height="300px" viewBox="0 0 300 300" enable-background="new 0 0 300 300" xml:space="preserve">
<g>
	<path fill="#D70567" d="M296.87,78.73c-1.92,7.38-3.9,14.74-5.74,22.14c-6.97,28.13-13.88,56.27-20.83,84.4
		c-1.85,7.47-5.36,10.21-13,10.21c-55.75,0-111.49,0-167.23,0c-7.85,0-11.26-2.67-13.1-10.38C65.53,137.19,54.1,89.28,42.68,41.37
		c-0.96-4.03-0.94-4.03-5.14-4.03c-7.94-0.01-15.87,0.09-23.81-0.06c-5.47-0.11-9.84-4.27-10.52-9.58
		c-0.67-5.29,2.66-10.4,7.87-11.84c1.35-0.38,2.83-0.44,4.25-0.45c11.28-0.03,22.57-0.04,33.85-0.01
		c6.82,0.02,10.47,2.83,12.09,9.45c3.04,12.45,5.98,24.92,8.97,37.38c0.22,0.92,0.48,1.84,0.8,3.03c1.34,0,2.66,0,3.97,0
		c69.42,0,138.84,0,208.25-0.01c3.18,0,6.56-0.16,8.95,2.19c1.9,1.87,3.13,4.43,4.66,6.69C296.87,75.67,296.87,77.2,296.87,78.73z
		 M76.25,87.46c6.86,28.77,13.68,57.36,20.5,85.97c0.82,0.04,1.39,0.1,1.95,0.1c49.8,0,99.6-0.01,149.4,0.04
		c1.86,0,2.59-0.53,3.05-2.41c4.85-19.97,9.82-39.92,14.76-59.87c1.95-7.87,3.89-15.75,5.88-23.83
		C206.55,87.46,141.6,87.46,76.25,87.46z"/>
	<path fill="#D70567" d="M139.34,247.91c0.09,20.11-16.15,36.54-36.29,36.71c-20.27,0.17-36.76-16.1-36.87-36.38
		c-0.12-20.32,16.1-36.74,36.4-36.86C122.8,211.25,139.25,227.59,139.34,247.91z M117.34,248.08c0.04-8.03-6.45-14.64-14.44-14.71
		c-8.08-0.07-14.85,6.65-14.79,14.71c0.06,7.95,6.72,14.6,14.65,14.6C110.7,262.67,117.3,256.08,117.34,248.08z"/>
	<path fill="#D70567" d="M199.14,248.07c-0.07-20.27,16.31-36.7,36.57-36.69c20.16,0.01,36.46,16.25,36.55,36.42
		c0.1,20.32-16.15,36.75-36.42,36.83C215.58,284.71,199.21,268.4,199.14,248.07z M221.11,247.88c-0.05,8.02,6.43,14.67,14.4,14.78
		c8.02,0.12,14.86-6.64,14.85-14.68c-0.01-7.94-6.66-14.6-14.6-14.62C227.77,233.33,221.16,239.88,221.11,247.88z"/>
</g>
</svg>
