<?xml version="1.0" encoding="utf-8"?>
<!-- Generator: Adobe Illustrator 27.8.0, SVG Export Plug-In . SVG Version: 6.00 Build 0)  -->
<svg version="1.1" id="Layer_1" xmlns="http://www.w3.org/2000/svg" xmlns:xlink="http://www.w3.org/1999/xlink" x="0px" y="0px"
	 width="300px" height="300px" viewBox="0 0 300 300" enable-background="new 0 0 300 300" xml:space="preserve">
<g>
	<path fill="#D71969" d="M257.02,203.91c5.38,0,10.76,0,15.06,0c1.08,0,1.08-1.08,1.08-2.15c0-9.68,0-18.28,0-27.96
		c0-4.3,0-9.68,0-13.98c0-2.15-1.08-4.3-2.15-5.38c-2.15-3.23-4.3-6.45-7.53-9.68c-1.08-1.08-2.15-3.23-3.23-4.3
		c-1.08-1.08-1.08-1.08-2.15-1.08c-22.59,0-44.1,0-66.68,0c-3.23,0-5.38,0-7.53-2.15c-2.15-2.15-3.23-4.3-3.23-7.53
		c0-20.44,0-40.87,0-61.31v-1.08c-1.08,0-2.15,0-3.23,0c-45.17,0-90.35,0-136.6,0c-2.15,0-3.23,0-5.38-1.08
		c-3.23-1.08-4.3-6.45-2.15-10.76c2.15-3.23,4.3-4.3,8.6-4.3c1.08,0,2.15,0,2.15,0c48.4,0,96.8,0,144.13,0c2.15,0,4.3,0,6.45,1.08
		c4.3,1.08,5.38,4.3,5.38,8.6c0,2.15,0,5.38,0,7.53c1.08,0,1.08,0,2.15,0c11.83,0,22.59,0,34.42,0c3.23,0,5.38,1.08,8.6,3.23
		c1.08,1.08,2.15,3.23,3.23,4.3c3.23,6.45,6.45,12.91,9.68,19.36c2.15,3.23,3.23,6.45,5.38,10.76c2.15,3.23,3.23,6.45,5.38,9.68
		c1.08,3.23,3.23,5.38,4.3,8.6c2.15,3.23,4.3,6.45,6.45,9.68c4.3,5.38,7.53,9.68,11.83,15.06c1.08,2.15,2.15,4.3,2.15,6.45
		c0,19.36,0,37.64,0,57c0,5.38-2.15,7.53-6.45,9.68c-1.08,1.08-3.23,0-4.3,0c-7.53,0-15.06,0-22.59,0c-2.15,0-2.15,0-3.23,2.15
		c-1.08,5.38-4.3,8.6-7.53,12.91c-4.3,5.38-10.76,8.6-17.21,10.76c-5.38,1.08-10.76,1.08-15.06,0c-2.15,0-4.3-1.08-6.45-2.15
		c-2.15-1.08-5.38-2.15-7.53-4.3c-3.23-2.15-5.38-5.38-8.6-8.6c-2.15-3.23-4.3-6.45-5.38-9.68c0-1.08-1.08-2.15-2.15-2.15
		c-16.13,0-32.27,0-48.4,0c-2.15,0-3.23,1.08-3.23,2.15c-3.23,9.68-9.68,17.21-19.36,21.51c-6.45,3.23-13.98,3.23-21.51,2.15
		c-7.53-1.08-12.91-5.38-18.28-9.68c-4.3-4.3-7.53-8.6-8.6-15.06c-3.23,0-3.23,0-4.3,0c-6.45,0-13.98,0-20.44,0
		c-4.3,0-7.53-1.08-9.68-5.38c-2.15-4.3,0-9.68,4.3-11.83c1.08-1.08,3.23-1.08,4.3-1.08c6.45,0,12.91,0,20.44,0
		c2.15,0,2.15-1.08,2.15-2.15c2.15-4.3,4.3-8.6,6.45-11.83s6.45-6.45,9.68-8.6c3.23-2.15,6.45-3.23,9.68-4.3
		c5.38-1.08,9.68-2.15,15.06-1.08c3.23,1.08,6.45,2.15,9.68,3.23c3.23,2.15,6.45,4.3,9.68,6.45c4.3,4.3,7.53,9.68,8.6,15.06
		c0,1.08,1.08,1.08,2.15,1.08c17.21,0,33.34,0,50.55,0c1.08,0,1.08,0,2.15-1.08c1.08-3.23,2.15-6.45,4.3-8.6
		c2.15-4.3,6.45-7.53,10.76-10.76c3.23-2.15,6.45-3.23,9.68-4.3c5.38-2.15,10.76-1.08,16.13-1.08c3.23,0,7.53,1.08,10.76,3.23
		c3.23,2.15,5.38,3.23,8.6,5.38c3.23,3.23,5.38,6.45,7.53,9.68c1.08,2.15,1.08,4.3,3.23,6.45
		C258.09,202.84,257.02,202.84,257.02,203.91z M251.64,122.17c-3.23-5.38-5.38-10.76-8.6-16.13c-3.23-6.45-5.38-11.83-8.6-18.28
		c-1.08-1.08-1.08-1.08-2.15-1.08c-9.68,0-19.36,0-29.04,0c0,0-1.08,0-2.15,0c0,11.83,0,23.66,0,35.49
		C217.22,122.17,234.43,122.17,251.64,122.17z M222.6,230.8c9.68,0,18.28-7.53,18.28-18.28s-7.53-17.21-17.21-18.28
		c-11.83,0-18.28,8.6-18.28,17.21C204.32,222.2,211.84,230.8,222.6,230.8z M98.91,195.31c-10.76-1.08-18.28,8.6-18.28,17.21
		c0,9.68,7.53,18.28,18.28,18.28c8.6,0,18.28-7.53,18.28-19.36C117.2,202.84,109.67,194.23,98.91,195.31z"/>
	<path fill="#D71969" d="M68.8,106.04c-12.91,0-25.81,0-39.8,0c-2.15-1.08-4.3-2.15-6.45-5.38s-2.15-5.38,0-8.6
		c1.08-3.23,3.23-4.3,6.45-4.3c1.08,0,2.15,0,2.15,0c24.74,0,49.48,0,74.21,0c3.23,0,5.38,1.08,7.53,2.15s3.23,6.45,2.15,9.68
		c-1.08,3.23-3.23,4.3-6.45,5.38c-1.08,0-2.15,0-3.23,0C93.53,104.96,81.7,104.96,68.8,106.04C68.8,104.96,68.8,104.96,68.8,106.04z
		"/>
	<path fill="#D71969" d="M53.74,140.45c-11.83,0-24.74,0-36.57,0c-1.08,0-3.23,0-4.3,0c-3.23-1.08-6.45-5.38-6.45-9.68
		c0-3.23,3.23-6.45,6.45-7.53c1.08,0,3.23-1.08,4.3-1.08c24.74,0,48.4,0,73.14,0c3.23,0,5.38,1.08,7.53,3.23s3.23,5.38,2.15,8.6
		c0,4.3-3.23,6.45-7.53,6.45C79.55,140.45,66.64,140.45,53.74,140.45z"/>
	<path fill="#D71969" d="M50.51,175.95c-6.45,0-13.98,0-20.44,0c-5.38,0-8.6-4.3-8.6-9.68c0-4.3,3.23-8.6,7.53-8.6
		c1.08,0,2.15,0,3.23,0c12.91,0,25.81,0,38.72,0c4.3,0,8.6,2.15,9.68,6.45c1.08,2.15,0,6.45-2.15,8.6s-4.3,3.23-7.53,3.23
		C64.49,175.95,56.96,175.95,50.51,175.95L50.51,175.95z"/>
</g>
</svg>
