<?xml version="1.0" encoding="utf-8"?>
<!-- Generator: Adobe Illustrator 27.8.0, SVG Export Plug-In . SVG Version: 6.00 Build 0)  -->
<svg version="1.1" id="Layer_1" xmlns="http://www.w3.org/2000/svg" xmlns:xlink="http://www.w3.org/1999/xlink" x="0px" y="0px"
	 width="70px" height="70px" viewBox="0 0 70 70" style="enable-background:new 0 0 70 70;" xml:space="preserve">
<style type="text/css">
	.st0{fill:#FF0000;}
</style>
<g>
	<path class="st0" d="M35,68.4c-18.4,0-33.4-15-33.4-33.4c0-18.4,15-33.4,33.4-33.4c18.4,0,33.4,15,33.4,33.4
		C68.4,53.4,53.4,68.4,35,68.4z M38.6,29.3c0-2.8,0-5.6,0-8.3c0-0.3,0-0.7-0.1-1c-0.4-1.8-2.1-3-3.9-2.8c-1.8,0.2-3.2,1.7-3.2,3.6
		c0,5.7,0,11.4,0,17.1c0,2.1,1.6,3.6,3.6,3.6c2,0,3.6-1.5,3.6-3.6C38.6,35,38.6,32.2,38.6,29.3z M30.9,49.4c0,2.3,1.8,4.1,4.1,4
		s4.1-1.8,4-4.1c0-2.3-1.8-4.1-4.1-4C32.7,45.3,30.9,47.1,30.9,49.4z"/>
</g>
</svg>
