<?xml version="1.0" encoding="utf-8"?>
<!-- Generator: Adobe Illustrator 27.8.0, SVG Export Plug-In . SVG Version: 6.00 Build 0)  -->
<svg version="1.1" id="Layer_1" xmlns="http://www.w3.org/2000/svg" xmlns:xlink="http://www.w3.org/1999/xlink" x="0px" y="0px"
	 width="30px" height="30px" viewBox="0 0 30 30" style="enable-background:new 0 0 30 30;" xml:space="preserve">
<style type="text/css">
	.st0{fill-rule:evenodd;clip-rule:evenodd;fill:#FFFFFF;}
</style>
<path class="st0" d="M15,1C7.1,1,0.8,7.4,0.8,15.4c0,6.3,4.1,11.7,9.7,13.6c0.7,0.1,1-0.3,1-0.7c0-0.3,0-1.5,0-2.7
	c-4,0.9-4.8-1.7-4.8-1.7c-0.6-1.7-1.6-2.1-1.6-2.1c-1.3-0.9,0.1-0.9,0.1-0.9c1.4,0.1,2.2,1.5,2.2,1.5c1.3,2.2,3.3,1.6,4.2,1.2
	c0.1-0.9,0.5-1.6,0.9-1.9C9.3,21.4,6,20.1,6,14.6c0-1.6,0.6-2.9,1.5-3.8C7.4,10.4,6.9,9,7.6,7c0,0,1.2-0.4,3.9,1.5
	C12.7,8.2,13.9,8,15.1,8c1.2,0,2.4,0.2,3.6,0.5C21.4,6.6,22.6,7,22.6,7c0.8,2,0.3,3.4,0.1,3.8c0.9,1,1.5,2.3,1.5,3.8
	c0,5.5-3.3,6.7-6.5,7.1c0.5,0.5,1,1.3,1,2.7c0,1.9,0,3.5,0,3.9s0.3,0.8,1,0.7c5.7-1.9,9.7-7.3,9.7-13.6C29.3,7.4,22.9,1,15,1z"/>
</svg>
