<?xml version="1.0" encoding="utf-8"?>
<!-- Generator: Adobe Illustrator 27.8.0, SVG Export Plug-In . SVG Version: 6.00 Build 0)  -->
<svg version="1.1" id="Layer_1" xmlns="http://www.w3.org/2000/svg" xmlns:xlink="http://www.w3.org/1999/xlink" x="0px" y="0px"
	 width="300px" height="300px" viewBox="0 0 300 300" style="enable-background:new 0 0 300 300;" xml:space="preserve">
<style type="text/css">
	.st0{fill:#D70567;}
</style>
<g>
	<path class="st0" d="M150,11c76.7,0,139,62.3,139,139.1c0,76.7-62.5,139.1-139.2,138.9c-76.8-0.1-139-62.5-138.9-139.2
		C11.1,73.2,73.4,11,150,11z M149.7,275.4c37.1-0.7,68.1-14.4,93.2-41.4c1.2-1.2,1.6-2.3,1-4c-1.1-3-1.9-6.2-2.9-9.3
		c-7.5-23.6-28.3-39.4-53-39.6c-25.3-0.2-50.7-0.2-76,0c-24.3,0.2-45.3,15.7-52.8,38.7c-1.1,3.4-2,7-3.2,10.4
		c-0.6,1.6-0.1,2.6,0.9,3.8C82.1,260.9,113.1,274.7,149.7,275.4z M149.7,168.7c30.6,0.3,56-24.8,56.2-55.6
		c0.2-30.6-24.7-56-55.1-56.3c-31.2-0.3-56.5,24.5-56.8,55.5C93.8,143.1,118.8,168.4,149.7,168.7z"/>
</g>
</svg>
