<?xml version="1.0" encoding="utf-8"?>
<!-- Generator: Adobe Illustrator 27.8.0, SVG Export Plug-In . SVG Version: 6.00 Build 0)  -->
<svg version="1.1" id="Layer_1" xmlns="http://www.w3.org/2000/svg" xmlns:xlink="http://www.w3.org/1999/xlink" x="0px" y="0px"
	 width="300px" height="300px" viewBox="0 0 300 300" style="enable-background:new 0 0 300 300;" xml:space="preserve">
<style type="text/css">
	.st0{fill:#D70567;}
</style>
<g>
	<path class="st0" d="M53,6.4c64.7,0,129.4,0,194,0c2.7,1,5.6,1.7,8,3.1c8.4,5,11.9,12.6,11.8,22.3c-0.1,82.9-0.1,165.7,0,248.6
		c0,6.2-1.7,10.7-7.5,13.2c-1.7,0-3.4,0-5,0c-1.6-1-3.3-1.9-4.9-3c-9.7-6.6-19.5-13.2-29.1-19.9c-1.7-1.2-2.9-1.3-4.6,0
		c-8.5,6.3-17.1,12.4-25.7,18.5c-2.3,1.7-4.9,3-7.4,4.5c-1.5,0-3,0-4.5,0c-2.2-1.5-4.5-2.9-6.5-4.6c-6.5-5.5-12.8-11.2-19.2-16.7
		c-0.8-0.7-1.5-1.3-2.4-2c-4.3,3.8-8.4,7.5-12.6,11c-5.1,4.2-10.2,8.2-15.4,12.4c-1.5,0-3,0-4.5,0c-2.2-1.3-4.4-2.4-6.5-3.8
		c-8.8-6.3-17.7-12.5-26.4-19c-2-1.5-3.2-1.3-5.1,0C68.3,278.4,57,286,45.7,293.6c-1.7,0-3.4,0-5,0c-5.8-2.5-7.6-7-7.5-13.2
		c0.1-82.4,0.1-164.8,0.1-247.2c0-1.5,0-3,0.1-4.5c0.2-6.5,2.9-11.8,7.6-16.3C44.3,9.2,48.6,7.8,53,6.4z M53.1,264.5
		c1.3-0.8,2.1-1.3,2.8-1.8c6.7-4.6,13.4-9.2,20.1-13.7c4.3-2.9,8.2-2.9,12.5,0.1c3.7,2.6,7.3,5.2,10.9,7.8
		c6.4,4.6,12.9,9.2,19.3,13.9c1.1-0.9,2-1.7,2.9-2.5c7-6.1,14.1-12.3,21.1-18.4c4.6-4,9.5-4,14.2-0.1c2.6,2.2,5.2,4.5,7.8,6.8
		c5.4,4.7,10.8,9.4,16.3,14.2c10-7.2,19.9-14.3,29.7-21.4c4.8-3.4,8.5-3.5,13.4-0.2c6.6,4.5,13.1,8.9,19.7,13.4
		c0.8,0.5,1.6,1,2.9,1.8c0-1.5,0-2.4,0-3.3c0-76.4,0-152.7,0-229.1c0-4.8-0.7-5.6-5.5-5.6c-60.9,0-121.9,0-182.8,0c-0.7,0-1.3,0-2,0
		c-2.2,0-3.2,1.3-3.5,3.3c-0.1,0.9-0.1,1.9-0.1,2.8c0,76.1,0,152.1,0,228.2C53.1,261.9,53.1,262.9,53.1,264.5z"/>
	<path class="st0" d="M149.9,79.9c-17.6,0-35.1,0-52.7,0c-7.6,0-12.5-6.7-10-13.5c1.5-3.9,5-6.4,9.5-6.5c3.6-0.1,7.3,0,10.9,0
		c31.5,0,63,0,94.4,0c6.5,0,10.9,3.7,11.3,9.3c0.4,6.1-4.1,10.8-10.5,10.8c-14.5,0-29,0-43.4,0C156.2,79.9,153,79.9,149.9,79.9z"/>
	<path class="st0" d="M150.1,133.2c-17.8,0-35.7,0-53.5,0c-5,0-9.1-3.5-9.9-8.2c-0.8-4.8,1.9-9.6,6.5-11.1c1.6-0.5,3.5-0.6,5.2-0.6
		c34.4,0,68.7,0,103.1,0c0.9,0,1.9,0,2.8,0.1c4.8,0.5,8.6,4.2,9,8.9c0.4,4.9-2.5,9.4-7.3,10.6c-1.3,0.4-2.8,0.3-4.2,0.3
		C184.7,133.3,167.4,133.2,150.1,133.2z"/>
	<path class="st0" d="M123.1,186.7c-8.9,0-17.7,0.1-26.6,0c-4.7-0.1-8.1-2.7-9.5-7c-1.3-3.9-0.1-8.4,3.4-10.7
		c1.8-1.2,4.1-2.1,6.2-2.1c17.8-0.2,35.7-0.1,53.5-0.1c5.7,0,10,4.5,10,10c0,5.4-4.2,9.8-9.8,9.9
		C141.2,186.8,132.2,186.7,123.1,186.7C123.1,186.7,123.1,186.7,123.1,186.7z"/>
</g>
</svg>
