<?xml version="1.0" encoding="utf-8"?>
<!-- Generator: Adobe Illustrator 27.8.0, SVG Export Plug-In . SVG Version: 6.00 Build 0)  -->
<svg version="1.1" id="Layer_1" xmlns="http://www.w3.org/2000/svg" xmlns:xlink="http://www.w3.org/1999/xlink" x="0px" y="0px"
	 width="300px" height="300px" viewBox="0 0 300 300" enable-background="new 0 0 300 300" xml:space="preserve">
<g>
	<path fill="#D71969" d="M191.62,64.25c22.59,0,45.18,0,67.76,0c6.45,0,12.91,1.08,18.29,5.38c6.45,5.38,10.76,11.83,10.76,20.44
		c0,29.04,0,58.08,0,87.12c0,6.45-3.23,12.91-7.53,17.21c-3.23,3.23-6.45,5.38-10.76,7.53c-3.23,1.08-6.45,1.08-9.68,1.08
		c-22.59,0-45.18,0-67.76,0c-2.15,0-3.23,1.08-3.23,3.23c-1.08,11.83-10.76,20.44-22.59,19.36c-3.23,0-5.38-2.15-7.53-3.23
		c-1.08-1.08-1.08,0-2.15,0c-5.38,7.53-16.13,10.76-25.81,5.38c-2.15-1.08-3.23-2.15-4.3-4.3c-1.08-1.08-2.15-1.08-3.23,0
		c-7.53,4.3-17.21,0-21.51-5.38c0-1.08-1.08-1.08-1.08-1.08c-3.23,3.23-7.53,5.38-11.83,8.6c-7.53,5.38-16.13,8.6-24.74,9.68
		c-15.06,1.08-31.19,0-46.25,0c-4.3,0-6.45-3.23-6.45-7.53c0-2.15,3.23-4.3,5.38-4.3c15.06,0,29.04,0,44.1,0
		c4.3,0,8.6-1.08,12.91-3.23c7.53-3.23,13.98-8.6,20.44-13.98c5.38-4.3,10.76-7.53,16.13-11.83c3.23-2.15,6.45-5.38,9.68-6.45
		c5.38-3.23,11.83-6.45,17.21-8.6s9.68-4.3,13.98-8.6c4.3-5.38,3.23-11.83-2.15-15.06c-4.3-3.23-8.6-2.15-12.91,0
		c-5.38,2.15-10.76,4.3-15.06,7.53c-4.3,2.15-9.68,4.3-13.98,6.45c-4.3,2.15-9.68,4.3-13.98,6.45c-3.23,1.08-6.45,3.23-9.68,4.3
		c-3.23,1.08-5.38,2.15-8.6,4.3c-1.08,1.08-5.38,0-5.38-2.15c-1.08-3.23,0-6.45,3.23-7.53c5.38-2.15,9.68-4.3,15.06-7.53
		c1.08-1.08,3.23-2.15,5.38-2.15s2.15-1.08,2.15-3.23c0-17.21,0-34.42,0-51.63c0-2.15-1.08-2.15-2.15-2.15
		c-6.45,0-11.83,0-18.29,1.08c-5.38,1.08-9.68,3.23-13.98,6.45c-5.38,4.3-11.83,8.6-17.21,12.91c-5.38,3.23-9.68,7.53-15.06,10.76
		c-3.23,2.15-5.38,4.3-8.6,6.45c-3.23,2.15-6.45,1.08-8.6-2.15c-1.08-2.15,0-5.38,2.15-7.53c6.45-4.3,12.91-9.68,20.44-13.98
		c7.53-5.38,13.98-11.83,22.59-16.13c7.53-5.38,16.13-8.6,25.81-8.6c3.23,0,6.45,0,9.68,0c2.15,0,2.15,0,2.15-2.15
		c0-4.3,0-9.68,2.15-13.98s5.38-8.6,9.68-11.83c5.38-4.3,11.83-5.38,18.29-5.38C147.52,64.25,169.03,64.25,191.62,64.25z
		 M142.14,191.17c1.08,0,1.08,0,2.15,0c39.8,0,78.52,0,118.32,0c2.15,0,5.38-1.08,7.53-2.15c6.45-3.23,8.6-8.6,8.6-16.13
		c0-13.98,0-27.97,0-40.87c0-2.15-1.08-3.23-3.23-3.23c-54.86,0-109.71,0-164.57,0c-1.08,0-2.15,0-2.15,0c-1.08,0-1.08,0-1.08,1.08
		c0,8.6,0,17.21,0,26.89c0,1.08,0,1.08,2.15,1.08c3.23-1.08,6.45-3.23,10.76-5.38c4.3-2.15,9.68-4.3,13.98-6.45
		c7.53-4.3,13.98-5.38,21.51-1.08c5.38,2.15,9.68,6.45,11.83,12.91c3.23,9.68,0,18.29-7.53,24.74
		C151.82,185.79,146.45,189.02,142.14,191.17z M191.62,97.59L191.62,97.59c26.89,0,53.78,0,80.67,0c5.38,0,5.38,0,5.38-5.38
		c0-9.68-7.53-17.21-17.21-17.21c-46.25,0-91.43,0-137.68,0c-4.3,0-7.53,1.08-9.68,3.23c-5.38,4.3-6.45,9.68-6.45,16.13
		c0,2.15,1.08,3.23,3.23,3.23C135.69,97.59,163.66,97.59,191.62,97.59z M191.62,119.11c22.59,0,45.18,0,67.76,0
		c5.38,0,10.76,0,16.13,0c2.15,0,2.15,0,2.15-2.15s0-4.3,0-5.38c0-2.15-1.08-3.23-3.23-3.23c-10.76,0-21.51,0-32.27,0
		c-44.1,0-89.28,0-133.38,0c-2.15,0-3.23,0-3.23,3.23c0,2.15,0,3.23,0,5.38s1.08,3.23,3.23,3.23
		C135.69,119.11,163.66,119.11,191.62,119.11z M133.54,209.46c0,3.23,0,6.45,3.23,8.6c4.3,2.15,9.68,1.08,11.83-3.23
		c1.08-3.23,1.08-7.53,1.08-10.76c0-2.15-1.08-2.15-2.15-2.15c-3.23,0-5.38,0-8.6,0C133.54,201.93,133.54,201.93,133.54,209.46z
		 M169.03,201.93c-1.08,0-3.23,0-4.3,0c-5.38,0-5.38,0-4.3,5.38c1.08,4.3,4.3,6.45,8.6,6.45c5.38,0,7.53-3.23,7.53-7.53
		c0-3.23-1.08-3.23-3.23-3.23C173.34,203,171.19,201.93,169.03,201.93z M122.78,206.23c0-1.08,0-2.15,0-3.23
		c0-1.08-1.08-1.08-2.15-1.08c-3.23,2.15-5.38,4.3-8.6,6.45c-1.08,1.08-1.08,1.08,0,2.15c1.08,2.15,3.23,2.15,5.38,2.15
		c2.15,0,4.3-1.08,4.3-4.3C122.78,208.38,121.71,207.31,122.78,206.23z"/>
	<path fill="#D71969" d="M238.95,175.04c-5.38,0-10.76,0-16.13,0c-4.3,0-6.45-2.15-6.45-5.38c0-3.23,2.15-6.45,6.45-6.45
		c3.23,0,7.53,0,10.76,0c6.45,0,12.91,0,20.44,0c2.15,0,4.3,1.08,5.38,2.15s2.15,3.23,1.08,4.3c-1.08,2.15-2.15,4.3-5.38,4.3
		C249.7,175.04,244.33,175.04,238.95,175.04z"/>
	<path fill="#D71969" d="M238.95,157.83c-6.45,0-11.83,0-18.29,0c-2.15,0-3.23-2.15-4.3-4.3c0-2.15,1.08-4.3,3.23-5.38
		c1.08,0,2.15-1.08,3.23-1.08c9.68,0,20.44,0,30.12,0c2.15,0,4.3,1.08,6.45,3.23c2.15,3.23,1.08,7.53-3.23,7.53
		C250.78,158.9,244.33,157.83,238.95,157.83z"/>
</g>
</svg>
