<?xml version="1.0" encoding="utf-8"?>
<!-- Generator: Adobe Illustrator 27.8.0, SVG Export Plug-In . SVG Version: 6.00 Build 0)  -->
<svg version="1.1" id="Layer_1" xmlns="http://www.w3.org/2000/svg" xmlns:xlink="http://www.w3.org/1999/xlink" x="0px" y="0px"
	 width="200px" height="200px" viewBox="0 0 200 200" enable-background="new 0 0 200 200" xml:space="preserve">
<g>
	<path fill="#EF3E2F" d="M-6.78,195.52c0-63.75,0-127.49,0-191.24c0.37-0.15,0.3-0.52,0.37-0.79c1.03-4.11,3.47-7.06,7.24-8.96
		C2-6.08,3.31-6.23,4.48-6.78c63.68,0,127.36,0,191.03,0c0.16,0.37,0.54,0.25,0.81,0.31c4.31,1.04,7.38,3.59,9.28,7.57
		c0.55,1.15,0.73,2.41,1.16,3.58c0,63.68,0,127.36,0,191.03c-0.37,0.15-0.3,0.52-0.37,0.79c-1.03,4.11-3.47,7.06-7.24,8.96
		c-1.23,0.62-2.59,0.84-3.87,1.3c-63.68,0-127.36,0-191.03,0c-0.15-0.37-0.52-0.3-0.79-0.37c-4.11-1.03-7.06-3.47-8.96-7.24
		C-6.08,198-6.23,196.69-6.78,195.52z M74.1,75.83c0.43-9.37,4.84-16.07,13.48-19.8c5.67-2.45,11.66-2.8,17.7-1.88
		c8.87,1.35,15.4,5.85,18.79,14.39c0.27,0.67,0.62,0.86,1.3,0.86c8.58-0.02,17.17-0.02,25.75,0c0.75,0,1.03-0.1,0.83-0.97
		c-3.61-15.93-12.89-27.03-28.11-33.06c-6.42-2.55-13.15-3.68-20.03-4.06c-9.13-0.49-18.04,0.53-26.59,3.91
		c-7.38,2.93-13.69,7.32-18.52,13.71c-1.68,2.22-3.08,4.62-4.23,7.15c-3.19,7.04-3.94,14.42-2.82,22
		c1.15,7.79,4.67,14.33,10.71,19.43c4.8,4.05,10.35,6.71,16.31,8.53c8.14,2.49,16.52,3.97,24.81,5.83
		c7.16,1.61,14.23,3.41,20.92,6.51c2.01,0.93,4.03,1.84,5.77,3.25c-0.05,0.34-0.13,0.68-0.15,1.02
		c-0.44,9.53-5.89,16.83-14.91,19.95c-6.47,2.23-13.1,2.43-19.74,1.14c-8.98-1.73-15.44-6.65-18.57-15.48
		c-0.22-0.63-0.57-0.74-1.16-0.74c-8.96,0.01-17.93,0.02-26.89-0.01c-0.94,0-1.02,0.35-0.86,1.12
		c3.35,15.52,12.28,26.55,26.73,33.08c7.01,3.17,14.42,4.72,22.06,5.31c9.7,0.74,19.23,0.01,28.47-3.21
		c7.93-2.76,14.83-7.06,20.08-13.75c1.33-1.57,2.41-3.3,3.4-5.1c3.96-7.21,5.2-14.93,4.36-23.05c-0.92-8.87-4.71-16.24-11.52-22.02
		c-5.67-4.81-12.27-7.8-19.38-9.69c-8.92-2.37-17.97-4.17-26.95-6.27C87.77,82.2,80.61,79.87,74.1,75.83z"/>
	<path fill="#FEFCFC" d="M206.78,4.69c-0.44-1.18-0.62-2.44-1.16-3.58c-1.91-3.99-4.97-6.53-9.28-7.57
		c-0.27-0.07-0.65,0.06-0.81-0.31c3.55,0,7.09,0.01,10.64-0.01c0.52,0,0.64,0.12,0.64,0.64C206.77-2.54,206.78,1.08,206.78,4.69z"/>
	<path fill="#FEFCFC" d="M195.31,206.78c1.28-0.46,2.64-0.67,3.87-1.3c3.77-1.9,6.21-4.85,7.24-8.96c0.07-0.27,0-0.65,0.37-0.79
		c0,3.48-0.01,6.95,0.01,10.43c0,0.52-0.12,0.64-0.64,0.64C202.54,206.77,198.92,206.78,195.31,206.78z"/>
	<path fill="#FEFCFC" d="M4.48-6.78C3.31-6.23,2-6.08,0.83-5.48c-3.76,1.91-6.21,4.86-7.24,8.96c-0.07,0.27,0,0.65-0.37,0.79
		c0-3.49,0.01-6.99-0.01-10.48c0-0.49,0.1-0.59,0.59-0.58C-2.64-6.77,0.92-6.78,4.48-6.78z"/>
	<path fill="#FEFCFC" d="M-6.78,195.52c0.55,1.18,0.7,2.49,1.29,3.66c1.91,3.76,4.86,6.21,8.96,7.24c0.27,0.07,0.65,0,0.79,0.37
		c-3.48,0-6.95-0.01-10.43,0.01c-0.52,0-0.64-0.12-0.64-0.64C-6.77,202.61-6.78,199.06-6.78,195.52z"/>
	<path fill="#FEFEFD" d="M130.19,121.62c-1.74-1.41-3.77-2.32-5.77-3.25c-6.68-3.1-13.76-4.9-20.92-6.51
		c-8.29-1.86-16.67-3.35-24.81-5.83c-5.95-1.82-11.51-4.48-16.31-8.53c-6.05-5.1-9.57-11.64-10.71-19.43
		c-1.11-7.58-0.37-14.95,2.82-22c1.15-2.54,2.54-4.93,4.23-7.15c0.42,1.16,0.26,2.38,0.37,3.58c0.39,4.4,1.72,8.5,3.92,12.3
		c2.7,4.66,6.45,8.3,11.09,11.03c6.51,4.04,13.67,6.37,21.06,8.1c8.98,2.1,18.04,3.9,26.95,6.27c7.11,1.89,13.71,4.89,19.38,9.69
		c6.81,5.78,10.6,13.14,11.52,22.02c0.84,8.12-0.39,15.84-4.36,23.05c-0.99,1.79-2.06,3.53-3.4,5.1c-0.2-0.31-0.17-0.67-0.17-1.01
		c0.01-1.91-0.18-3.81-0.46-5.7c-1.08-7.39-4.28-13.65-9.97-18.55C133.28,123.6,131.89,122.38,130.19,121.62z"/>
	<path fill="#F8B0AA" d="M130.19,121.62c1.7,0.76,3.09,1.98,4.47,3.17c5.69,4.9,8.89,11.16,9.97,18.55c0.28,1.89,0.47,3.79,0.46,5.7
		c0,0.34-0.03,0.7,0.17,1.01c-5.25,6.69-12.15,10.99-20.08,13.75c-9.24,3.22-18.77,3.95-28.47,3.21
		c-7.64-0.58-15.05-2.14-22.06-5.31c-14.46-6.53-23.38-17.56-26.73-33.08c-0.16-0.76-0.08-1.12,0.86-1.12
		c8.96,0.03,17.93,0.02,26.89,0.01c0.58,0,0.93,0.11,1.16,0.74c3.13,8.82,9.58,13.74,18.57,15.48c6.65,1.28,13.27,1.09,19.74-1.14
		c9.03-3.12,14.47-10.42,14.91-19.95C130.06,122.3,130.14,121.96,130.19,121.62z"/>
	<path fill="#F8B0AA" d="M74.1,75.83c-4.64-2.73-8.39-6.37-11.09-11.03c-2.2-3.8-3.53-7.9-3.92-12.3c-0.1-1.19,0.05-2.42-0.37-3.58
		c4.83-6.39,11.14-10.78,18.52-13.71c8.55-3.39,17.46-4.41,26.59-3.91c6.88,0.37,13.6,1.51,20.03,4.06
		c15.22,6.03,24.5,17.13,28.11,33.06c0.2,0.88-0.08,0.98-0.83,0.97c-8.58-0.02-17.17-0.02-25.75,0c-0.69,0-1.03-0.18-1.3-0.86
		c-3.39-8.53-9.92-13.04-18.79-14.39c-6.05-0.92-12.03-0.56-17.7,1.88C78.94,59.76,74.53,66.46,74.1,75.83z"/>
</g>
<g>
</g>
<g>
</g>
<g>
</g>
<g>
</g>
<g>
</g>
<g>
</g>
<g>
</g>
<g>
</g>
<g>
</g>
<g>
</g>
<g>
</g>
<g>
</g>
<g>
</g>
<g>
</g>
<g>
</g>
</svg>
